<svg width="58" height="67" viewBox="0 0 58 67" fill="none" xmlns="http://www.w3.org/2000/svg">
<path d="M51.2056 0.193359H6.79461C3.0493 0.193359 0 3.25044 0 7.03875V51.9655C0 55.7538 3.04908 58.8109 6.79438 58.8109H44.3784L42.6216 52.6633L46.864 56.6177L50.8742 60.3394L58 66.653V7.03875C58 3.25044 54.9509 0.193359 51.2056 0.193359ZM38.4125 43.5918C38.4125 43.5918 37.2195 42.1627 36.2251 40.9C40.5669 39.6704 42.224 36.9456 42.224 36.9456C40.8651 37.8429 39.5725 38.4744 38.4125 38.906C36.7555 39.604 35.1645 40.069 33.6069 40.335C30.4251 40.9331 27.5085 40.7671 25.0229 40.3019C23.1336 39.9361 21.5096 39.4046 20.1509 38.873C19.3885 38.5739 18.56 38.2084 17.7312 37.7432C17.632 37.6766 17.5325 37.6434 17.4331 37.5769C17.3669 37.5437 17.3336 37.5106 17.3005 37.4774C16.704 37.1451 16.3725 36.9124 16.3725 36.9124C16.3725 36.9124 17.9635 39.5709 22.1725 40.8334C21.1784 42.0964 19.952 43.5916 19.952 43.5916C12.6272 43.3589 9.84346 38.5407 9.84346 38.5407C9.84346 27.8407 14.616 19.1676 14.616 19.1676C19.3885 15.5787 23.9291 15.6785 23.9291 15.6785L24.2605 16.0773C18.2949 17.8049 15.544 20.4304 15.544 20.4304C15.544 20.4304 16.2731 20.0317 17.4992 19.4668C21.0456 17.9048 23.8629 17.473 25.0229 17.3733C25.2216 17.3399 25.3875 17.3067 25.5864 17.3067C27.8074 17.0166 30.055 16.9944 32.2813 17.2404C35.4296 17.6059 38.8104 18.5363 42.2571 20.4304C42.2571 20.4304 39.6389 17.9382 34.0045 16.2102L34.4685 15.6787C34.4685 15.6787 39.0091 15.5787 43.7816 19.1678C43.7816 19.1678 48.5544 27.8407 48.5544 38.5407C48.5544 38.5407 45.7371 43.3589 38.4125 43.5916V43.5918ZM23.0011 28.0733C21.112 28.0733 19.6208 29.7347 19.6208 31.7617C19.6208 33.7888 21.1451 35.4502 23.0011 35.4502C24.8904 35.4502 26.3816 33.7888 26.3816 31.7617C26.4149 29.7347 24.8902 28.0733 23.0011 28.0733ZM35.0984 28.0733C33.2091 28.0733 31.7176 29.7347 31.7176 31.7617C31.7176 33.7888 33.2424 35.4502 35.0984 35.4502C36.9875 35.4502 38.4787 33.7888 38.4787 31.7617C38.4787 29.7347 36.9875 28.0733 35.0984 28.0733Z" fill="#00F58C"/>
</svg>
