<svg width="50" height="50" viewBox="0 0 50 50" fill="none" xmlns="http://www.w3.org/2000/svg">
<path d="M13.8606 14.6076H35.96L29.1532 0.137207H20.6674L13.8606 14.6076Z" fill="#00F58C"/>
<path d="M36.9315 17.9893H13.0679V31.882H36.9315V17.9893Z" fill="#00F58C"/>
<path d="M40.3408 18.4482V31.4223L49.9999 29.1031V20.7646L40.3408 18.4482Z" fill="#00F58C"/>
<path d="M9.65909 31.4223V18.4482L0 20.7646V29.1031L9.65909 31.4223Z" fill="#00F58C"/>
<path d="M39.8354 14.8473L49.3212 17.1243L43.3013 6.7822L33.3638 1.08984L39.8354 14.8473Z" fill="#00F58C"/>
<path d="M40.2389 34.9287L33.8525 48.5002L43.3014 43.0896L49.3213 32.7476L40.2389 34.9287Z" fill="#00F58C"/>
<path d="M9.96329 34.9766L0.679199 32.7476L6.69909 43.0896L16.3923 48.6411L9.96329 34.9766Z" fill="#00F58C"/>
<path d="M36.3177 35.2632H13.8604L20.6672 49.7336H29.5109L36.3177 35.2632Z" fill="#00F58C"/>
<path d="M9.96329 14.8945L16.3923 1.22998L6.69909 6.78144L0.679199 17.1235L9.96329 14.8945Z" fill="#00F58C"/>
</svg>
