<svg width="43" height="39" viewBox="0 0 43 39" fill="none" xmlns="http://www.w3.org/2000/svg">
<path d="M10.1344 38.3125H10.1207C7.28487 38.3125 4.94705 37.8633 3.17366 36.9766C1.74206 36.2598 1.15613 35.4923 1.00965 35.2735C0.745988 34.877 0.675678 34.381 0.822158 33.9279C0.968639 33.4747 1.31433 33.1115 1.75963 32.9455C1.81041 32.9259 6.41771 31.1564 9.39614 27.7874C8.12079 26.887 6.27123 25.3441 4.5662 23.0297C1.89049 19.397 -0.941465 13.0866 0.771378 3.65915C0.874891 3.0869 1.28894 2.62012 1.84361 2.4463C2.39829 2.27247 3.00374 2.42286 3.41388 2.833C3.48224 2.90136 9.98402 9.31134 17.933 11.3816V10.1883C17.933 7.68639 18.933 5.32122 20.7474 3.5322C22.5579 1.74514 24.927 0.77642 27.4269 0.813528C30.753 0.852589 33.7939 2.66113 35.4345 5.5009H41.3699C42.0027 5.5009 42.571 5.88175 42.8132 6.46572C43.0554 7.04969 42.9206 7.72154 42.4753 8.16879L36.577 14.0671C36.0126 20.5981 33.081 26.6409 28.2863 31.135C23.3489 35.7637 16.9018 38.3125 10.1344 38.3125ZM5.5857 34.586C6.59739 34.9142 8.05829 35.1876 10.1207 35.1876H10.1325C22.4485 35.1876 32.7119 25.5628 33.5029 13.2722C33.5263 12.8933 33.6884 12.5359 33.958 12.2683L37.5985 8.62777H34.4755C33.8545 8.62777 33.292 8.26059 33.0439 7.69029C32.0615 5.44035 29.8428 3.96774 27.3878 3.9404C27.3605 3.9404 27.3312 3.9404 27.3039 3.9404C25.6769 3.9404 24.1321 4.58491 22.9426 5.7587C21.7278 6.95594 21.0599 8.53011 21.0599 10.1902V13.3151C21.0599 13.7741 20.8568 14.2096 20.5072 14.5065C20.1576 14.8034 19.6927 14.9303 19.2396 14.8561C12.4547 13.7253 6.54661 9.58477 3.46466 7.05359C2.99202 12.53 4.20488 17.2701 7.08371 21.1763C9.56606 24.5453 12.355 25.9652 12.3843 25.9789C12.7847 26.18 13.0816 26.5413 13.1949 26.9749C13.3081 27.4085 13.2339 27.8694 12.9839 28.2425C10.9684 31.2658 7.83564 33.3654 5.5857 34.586Z" fill="#00F58C"/>
</svg>
