<svg width="52" height="52" viewBox="0 0 52 52" fill="none" xmlns="http://www.w3.org/2000/svg">
<path d="M0.5 3.40537C0.5 1.79726 1.79726 0.5 3.40537 0.5H50.7108V42.3719C50.7108 43.6716 50.1945 44.9216 49.2745 45.8417L45.8417 49.2745C44.9216 50.1945 43.6716 50.7108 42.3719 50.7108H0.5V3.40537Z" stroke="#00F58C" stroke-opacity="0.5"/>
<path d="M28.7359 37.5129L28.7359 34.7008L33.527 29.9098L36.3391 29.9098C36.7017 29.9098 36.9961 29.6154 36.9961 29.2527L36.9961 24.9544L32.6978 24.9544C32.3351 24.9544 32.0408 25.2488 32.0408 25.6115L32.0408 28.4236L27.2497 33.2146L24.4376 33.2146C24.0749 33.2146 23.7806 33.509 23.7806 33.8716L23.7806 38.1699L28.0789 38.1699C28.4416 38.1699 28.7359 37.8756 28.7359 37.5129V37.5129Z" fill="#00F58C"/>
<path d="M22.1292 18.5116L17.3381 23.3026L14.526 23.3026C14.1633 23.3026 13.869 23.597 13.869 23.9597L13.869 28.258L18.1673 28.258C18.5299 28.258 18.8243 27.9636 18.8243 27.6009L18.8243 24.7888L23.6154 19.9978L26.4274 19.9978C26.7901 19.9978 27.0845 19.7034 27.0845 19.3408L27.0845 15.0425L22.7862 15.0425C22.4235 15.0425 22.1292 15.3368 22.1292 15.6995L22.1292 18.5116V18.5116Z" fill="#00F58C"/>
</svg>
