<svg width="52" height="52" viewBox="0 0 52 52" fill="none" xmlns="http://www.w3.org/2000/svg">
<path fill-rule="evenodd" clip-rule="evenodd" d="M25 12C25.5523 12 26 12.4477 26 13V39C26 39.5523 25.5523 40 25 40C24.4477 40 24 39.5523 24 39V13C24 12.4477 24.4477 12 25 12Z" fill="#00F58C"/>
<path fill-rule="evenodd" clip-rule="evenodd" d="M18.2574 16.7574C19.3826 15.6321 20.9087 15 22.5 15H27C27.7879 15 28.5681 15.1552 29.2961 15.4567C30.0241 15.7583 30.6855 16.2002 31.2426 16.7574C31.7998 17.3145 32.2417 17.9759 32.5433 18.7039C32.8448 19.4319 33 20.2121 33 21C33 21.5523 32.5523 22 32 22C31.4477 22 31 21.5523 31 21C31 20.4747 30.8965 19.9546 30.6955 19.4693C30.4945 18.984 30.1999 18.543 29.8284 18.1716C29.457 17.8001 29.016 17.5055 28.5307 17.3045C28.0454 17.1035 27.5253 17 27 17H22.5C21.4391 17 20.4217 17.4214 19.6716 18.1716C18.9214 18.9217 18.5 19.9391 18.5 21C18.5 22.0609 18.9214 23.0783 19.6716 23.8284C20.4217 24.5786 21.4391 25 22.5 25H28C29.5913 25 31.1174 25.6321 32.2426 26.7574C33.3679 27.8826 34 29.4087 34 31C34 32.5913 33.3679 34.1174 32.2426 35.2426C31.1174 36.3679 29.5913 37 28 37H22C20.4087 37 18.8826 36.3679 17.7574 35.2426C16.6321 34.1174 16 32.5913 16 31C16 30.4477 16.4477 30 17 30C17.5523 30 18 30.4477 18 31C18 32.0609 18.4214 33.0783 19.1716 33.8284C19.9217 34.5786 20.9391 35 22 35H28C29.0609 35 30.0783 34.5786 30.8284 33.8284C31.5786 33.0783 32 32.0609 32 31C32 29.9391 31.5786 28.9217 30.8284 28.1716C30.0783 27.4214 29.0609 27 28 27H22.5C20.9087 27 19.3826 26.3679 18.2574 25.2426C17.1321 24.1174 16.5 22.5913 16.5 21C16.5 19.4087 17.1321 17.8826 18.2574 16.7574Z" fill="#00F58C"/>
<path d="M0.5 3.40537C0.5 1.79726 1.79726 0.5 3.40537 0.5H50.7108V42.3719C50.7108 43.6716 50.1945 44.9216 49.2745 45.8417L45.8417 49.2745C44.9216 50.1945 43.6716 50.7108 42.3719 50.7108H0.5V3.40537Z" stroke="#00F58C" stroke-opacity="0.5"/>
</svg>
