<svg width="52" height="52" viewBox="0 0 52 52" fill="none" xmlns="http://www.w3.org/2000/svg">
<path d="M32.5018 20.8334L29.2162 13.6834C29.1064 13.444 28.867 13.2905 28.6036 13.2905H24.0703C23.807 13.2905 23.5675 13.444 23.4577 13.6834L20.1721 20.8348H32.5004L32.5018 20.8334Z" fill="#00F58C"/>
<path d="M32.1314 21.9121H20.5452C20.1735 21.9121 19.8721 22.2135 19.8721 22.5853V28.7832C19.8721 29.155 20.1735 29.4564 20.5452 29.4564H32.1314C32.5031 29.4564 32.8045 29.155 32.8045 28.7832V22.5853C32.8045 22.2135 32.5031 21.9121 32.1314 21.9121Z" fill="#00F58C"/>
<path d="M20.1733 30.5325L23.4589 37.6838C23.5688 37.9232 23.8082 38.0768 24.0715 38.0768H28.6049C28.8682 38.0768 29.1076 37.9232 29.2175 37.6838L32.503 30.5325H20.1733Z" fill="#00F58C"/>
<path d="M33.8801 22.0334V29.3354L38.1909 28.4553C38.505 28.3919 38.7303 28.1159 38.7303 27.7948V23.5727C38.7303 23.253 38.505 22.977 38.1909 22.9122L33.8801 22.032V22.0334Z" fill="#00F58C"/>
<path d="M33.7182 20.8996L38.443 21.8643L35.5011 16.7676C35.4419 16.6648 35.3574 16.5803 35.2546 16.5212L30.4255 13.7341L33.7182 20.8996Z" fill="#00F58C"/>
<path d="M18.9564 20.8996L22.249 13.7341L17.4213 16.5212C17.3185 16.5803 17.234 16.6648 17.1749 16.7676L14.2329 21.8643L18.9578 20.8996H18.9564Z" fill="#00F58C"/>
<path d="M18.9564 30.4676L14.2329 29.5029L17.1749 34.5996C17.234 34.7024 17.3185 34.7869 17.4213 34.846L22.249 37.6331L18.9564 30.4662V30.4676Z" fill="#00F58C"/>
<path d="M33.7182 30.4677L30.4255 37.6345L35.2532 34.8475C35.356 34.7884 35.4405 34.7039 35.4997 34.601L38.4416 29.5044L33.7167 30.4691L33.7182 30.4677Z" fill="#00F58C"/>
<path d="M18.7931 22.0332L14.4823 22.9134C14.1682 22.9768 13.9429 23.2528 13.9429 23.5739V27.796C13.9429 28.1157 14.1682 28.3917 14.4823 28.4565L18.7931 29.3367V22.0332Z" fill="#00F58C"/>
<path d="M1.23535 3.48863C1.23535 1.88051 2.53261 0.583252 4.14073 0.583252H51.4461V42.4551C51.4461 43.7549 50.9299 45.0048 50.0098 45.9249L46.577 49.3577C45.6569 50.2778 44.407 50.794 43.1072 50.794H1.23535V3.48863Z" stroke="#00F58C" stroke-opacity="0.5"/>
</svg>
