<svg width="52" height="52" viewBox="0 0 52 52" fill="none" xmlns="http://www.w3.org/2000/svg">
<path d="M0.5 3.40537C0.5 1.79726 1.79726 0.5 3.40537 0.5H50.7108V42.3719C50.7108 43.6716 50.1945 44.9216 49.2745 45.8417L45.8417 49.2745C44.9216 50.1945 43.6716 50.7108 42.3719 50.7108H0.5V3.40537Z" stroke="#00F58C" stroke-opacity="0.5"/>
<path fill-rule="evenodd" clip-rule="evenodd" d="M19.5858 14.5858C19.9609 14.2107 20.4696 14 21 14H35C35.5304 14 36.0391 14.2107 36.4142 14.5858C36.7893 14.9609 37 15.4696 37 16V30C37 30.5304 36.7893 31.0391 36.4142 31.4142C36.0391 31.7893 35.5304 32 35 32H30C29.4477 32 29 31.5523 29 31V28C29 27.4477 29.4477 27 30 27C30.5523 27 31 27.4477 31 28V30H35V16L21 16V20H23C23.5523 20 24 20.4477 24 21C24 21.5523 23.5523 22 23 22H20C19.4477 22 19 21.5523 19 21V16C19 15.4696 19.2107 14.9609 19.5858 14.5858ZM13.5858 20.5858C13.9609 20.2107 14.4696 20 15 20H16C16.5523 20 17 20.4477 17 21C17 21.5523 16.5523 22 16 22H15L15 23C15 23.5523 14.5523 24 14 24C13.4477 24 13 23.5523 13 23V22C13 21.4696 13.2107 20.9609 13.5858 20.5858ZM27 21C27 20.4477 27.4477 20 28 20H29C29.5304 20 30.0391 20.2107 30.4142 20.5858C30.7893 20.9609 31 21.4696 31 22V23C31 23.5523 30.5523 24 30 24C29.4477 24 29 23.5523 29 23V22H28C27.4477 22 27 21.5523 27 21ZM14 27C14.5523 27 15 27.4477 15 28V30C15 30.5523 14.5523 31 14 31C13.4477 31 13 30.5523 13 30V28C13 27.4477 13.4477 27 14 27ZM14 34C14.5523 34 15 34.4477 15 35V36H16C16.5523 36 17 36.4477 17 37C17 37.5523 16.5523 38 16 38H15C14.4696 38 13.9609 37.7893 13.5858 37.4142C13.2107 37.0391 13 36.5304 13 36V35C13 34.4477 13.4477 34 14 34ZM30 34C30.5523 34 31 34.4477 31 35V36C31 36.5304 30.7893 37.0391 30.4142 37.4142C30.0391 37.7893 29.5304 38 29 38H28C27.4477 38 27 37.5523 27 37C27 36.4477 27.4477 36 28 36H29V35C29 34.4477 29.4477 34 30 34ZM20 37C20 36.4477 20.4477 36 21 36H23C23.5523 36 24 36.4477 24 37C24 37.5523 23.5523 38 23 38H21C20.4477 38 20 37.5523 20 37Z" fill="#00F58C"/>
</svg>
