<svg width="52" height="52" viewBox="0 0 52 52" fill="none" xmlns="http://www.w3.org/2000/svg">
<path d="M0.5 3.40537C0.5 1.79726 1.79726 0.5 3.40537 0.5H50.7108V42.3719C50.7108 43.6716 50.1945 44.9216 49.2745 45.8417L45.8417 49.2745C44.9216 50.1945 43.6716 50.7108 42.3719 50.7108H0.5V3.40537Z" stroke="#00F58C" stroke-opacity="0.5"/>
<path fill-rule="evenodd" clip-rule="evenodd" d="M13 30C13 29.4477 13.4477 29 14 29H36C36.5523 29 37 29.4477 37 30C37 30.5523 36.5523 31 36 31H14C13.4477 31 13 30.5523 13 30Z" fill="#00F58C"/>
<path fill-rule="evenodd" clip-rule="evenodd" d="M13 22C13 21.4477 13.4477 21 14 21H36C36.5523 21 37 21.4477 37 22C37 22.5523 36.5523 23 36 23H14C13.4477 23 13 22.5523 13 22Z" fill="#00F58C"/>
</svg>
