<svg width="52" height="52" viewBox="0 0 52 52" fill="none" xmlns="http://www.w3.org/2000/svg">
<path d="M0.5 3.40537C0.5 1.79726 1.79726 0.5 3.40537 0.5H50.7108V42.3719C50.7108 43.6716 50.1945 44.9216 49.2745 45.8417L45.8417 49.2745C44.9216 50.1945 43.6716 50.7108 42.3719 50.7108H0.5V3.40537Z" stroke="#00F58C" stroke-opacity="0.5"/>
<path fill-rule="evenodd" clip-rule="evenodd" d="M24 14C24.5523 14 25 14.4477 25 15V37C25 37.5523 24.5523 38 24 38C23.4477 38 23 37.5523 23 37V15C23 14.4477 23.4477 14 24 14Z" fill="#00F58C"/>
<path fill-rule="evenodd" clip-rule="evenodd" d="M20 37C20 36.4477 20.4477 36 21 36H27C27.5523 36 28 36.4477 28 37C28 37.5523 27.5523 38 27 38H21C20.4477 38 20 37.5523 20 37Z" fill="#00F58C"/>
<path fill-rule="evenodd" clip-rule="evenodd" d="M33.9762 16.783C34.096 17.3222 33.756 17.8563 33.2169 17.9762L15.2169 21.9762C14.6778 22.096 14.1436 21.756 14.0238 21.2169C13.904 20.6778 14.2439 20.1436 14.783 20.0238L32.783 16.0238C33.3222 15.904 33.8563 16.2439 33.9762 16.783Z" fill="#00F58C"/>
<path fill-rule="evenodd" clip-rule="evenodd" d="M15 20C15.4089 20 15.7766 20.249 15.9285 20.6286L19.9285 30.6286C19.9757 30.7467 20 30.8728 20 31C20 32.5611 19.0895 33.5973 18.066 34.1937C17.0721 34.7728 15.8907 35 15 35C14.1093 35 12.9279 34.7728 11.934 34.1937C10.9105 33.5973 10 32.5611 10 31C10 30.8728 10.0243 30.7467 10.0715 30.6286L14.0715 20.6286C14.2234 20.249 14.5911 20 15 20ZM12.0083 31.172C12.0635 31.7343 12.3938 32.1469 12.941 32.4657C13.5721 32.8335 14.3907 33 15 33C15.6093 33 16.4279 32.8335 17.059 32.4657C17.6062 32.1469 17.9365 31.7343 17.9917 31.172L15 23.6926L12.0083 31.172Z" fill="#00F58C"/>
<path fill-rule="evenodd" clip-rule="evenodd" d="M33 16C33.4089 16 33.7766 16.249 33.9285 16.6286L37.9285 26.6286C37.9757 26.7467 38 26.8728 38 27C38 28.5611 37.0895 29.5973 36.066 30.1937C35.0721 30.7728 33.8907 31 33 31C32.1093 31 30.9279 30.7728 29.934 30.1937C28.9105 29.5973 28 28.5611 28 27C28 26.8728 28.0243 26.7467 28.0715 26.6286L32.0715 16.6286C32.2234 16.249 32.5911 16 33 16ZM30.0083 27.172C30.0635 27.7343 30.3938 28.1469 30.941 28.4657C31.5721 28.8335 32.3907 29 33 29C33.6093 29 34.4279 28.8335 35.059 28.4657C35.6062 28.1469 35.9365 27.7343 35.9917 27.172L33 19.6926L30.0083 27.172Z" fill="#00F58C"/>
</svg>
