<svg width="52" height="52" viewBox="0 0 52 52" fill="none" xmlns="http://www.w3.org/2000/svg">
<path d="M0.5 3.40537C0.5 1.79726 1.79726 0.5 3.40537 0.5H50.7108V42.3719C50.7108 43.6716 50.1945 44.9216 49.2745 45.8417L45.8417 49.2745C44.9216 50.1945 43.6716 50.7108 42.3719 50.7108H0.5V3.40537Z" stroke="#00F58C" stroke-opacity="0.5"/>
<path d="M31.1619 22.2772L32.4356 21.0035L29.993 18.5608L28.7193 19.8356L26.2247 18.8026V17H22.7706V18.8026L20.2761 19.8356L19.0024 18.5608L16.5608 21.0035L17.8345 22.2772L16.8015 24.7717H15V28.2258H16.8026L17.8356 30.7203L16.5619 31.9951L19.0046 34.4378L20.2783 33.163L22.7728 34.196V35.9975H26.2269V34.196L28.7214 33.163L29.9951 34.4378L32.4378 31.9951L31.1641 30.7203L32.1971 28.2258H33.9997V24.7717H32.1971L31.1641 22.2772H31.1619ZM26.8119 28.8119L24.4988 29.7705L22.1856 28.8119L21.2271 26.4988L22.1856 24.1856L24.4988 23.2271L26.8119 24.1856L27.7705 26.4988L26.8119 28.8119V28.8119Z" fill="#00F58C"/>
</svg>
