<svg width="52" height="52" viewBox="0 0 52 52" fill="none" xmlns="http://www.w3.org/2000/svg">
<path d="M0.5 3.40537C0.5 1.79726 1.79726 0.5 3.40537 0.5H50.7108V42.3719C50.7108 43.6716 50.1945 44.9216 49.2745 45.8417L45.8417 49.2745C44.9216 50.1945 43.6716 50.7108 42.3719 50.7108H0.5V3.40537Z" stroke="#00F58C" stroke-opacity="0.5"/>
<path fill-rule="evenodd" clip-rule="evenodd" d="M10 18C10 16.8954 10.8954 16 12 16H36C37.1046 16 38 16.8954 38 18V34C38 35.1046 37.1046 36 36 36H12C10.8954 36 10 35.1046 10 34V18ZM36 18H12V34H36V18Z" fill="#00F58C"/>
<path fill-rule="evenodd" clip-rule="evenodd" d="M28 31C28 30.4477 28.4477 30 29 30H33C33.5523 30 34 30.4477 34 31C34 31.5523 33.5523 32 33 32H29C28.4477 32 28 31.5523 28 31Z" fill="#00F58C"/>
<path fill-rule="evenodd" clip-rule="evenodd" d="M22 31C22 30.4477 22.4477 30 23 30H25C25.5523 30 26 30.4477 26 31C26 31.5523 25.5523 32 25 32H23C22.4477 32 22 31.5523 22 31Z" fill="#00F58C"/>
<path fill-rule="evenodd" clip-rule="evenodd" d="M10 22.1125C10 21.5603 10.4477 21.1125 11 21.1125H37C37.5523 21.1125 38 21.5603 38 22.1125C38 22.6648 37.5523 23.1125 37 23.1125H11C10.4477 23.1125 10 22.6648 10 22.1125Z" fill="#00F58C"/>
</svg>
