<svg width="50" height="50" viewBox="0 0 50 50" fill="none" xmlns="http://www.w3.org/2000/svg">
<path fill-rule="evenodd" clip-rule="evenodd" d="M25 9.375C16.3705 9.375 9.375 16.3705 9.375 25C9.375 33.6295 16.3705 40.625 25 40.625C33.6295 40.625 40.625 33.6295 40.625 25C40.625 16.3705 33.6295 9.375 25 9.375ZM6.25 25C6.25 14.6447 14.6447 6.25 25 6.25C35.3553 6.25 43.75 14.6447 43.75 25C43.75 35.3553 35.3553 43.75 25 43.75C14.6447 43.75 6.25 35.3553 6.25 25Z" fill="white"/>
<path fill-rule="evenodd" clip-rule="evenodd" d="M25 2.34375C25.8629 2.34375 26.5625 3.04331 26.5625 3.90625V11.7188C26.5625 12.5817 25.8629 13.2812 25 13.2812C24.1371 13.2812 23.4375 12.5817 23.4375 11.7188V3.90625C23.4375 3.04331 24.1371 2.34375 25 2.34375Z" fill="white"/>
<path fill-rule="evenodd" clip-rule="evenodd" d="M2.34375 25C2.34375 24.1371 3.04331 23.4375 3.90625 23.4375H11.7188C12.5817 23.4375 13.2812 24.1371 13.2812 25C13.2812 25.8629 12.5817 26.5625 11.7188 26.5625H3.90625C3.04331 26.5625 2.34375 25.8629 2.34375 25Z" fill="white"/>
<path fill-rule="evenodd" clip-rule="evenodd" d="M25 36.7188C25.8629 36.7188 26.5625 37.4183 26.5625 38.2812V46.0938C26.5625 46.9567 25.8629 47.6562 25 47.6562C24.1371 47.6562 23.4375 46.9567 23.4375 46.0938V38.2812C23.4375 37.4183 24.1371 36.7188 25 36.7188Z" fill="white"/>
<path fill-rule="evenodd" clip-rule="evenodd" d="M36.7188 25C36.7188 24.1371 37.4183 23.4375 38.2812 23.4375H46.0938C46.9567 23.4375 47.6562 24.1371 47.6562 25C47.6562 25.8629 46.9567 26.5625 46.0938 26.5625H38.2812C37.4183 26.5625 36.7188 25.8629 36.7188 25Z" fill="white"/>
<path fill-rule="evenodd" clip-rule="evenodd" d="M25 20.3125C22.4112 20.3125 20.3125 22.4112 20.3125 25C20.3125 27.5888 22.4112 29.6875 25 29.6875C27.5888 29.6875 29.6875 27.5888 29.6875 25C29.6875 22.4112 27.5888 20.3125 25 20.3125ZM17.1875 25C17.1875 20.6853 20.6853 17.1875 25 17.1875C29.3147 17.1875 32.8125 20.6853 32.8125 25C32.8125 29.3147 29.3147 32.8125 25 32.8125C20.6853 32.8125 17.1875 29.3147 17.1875 25Z" fill="white"/>
</svg>
