<svg width="50" height="50" viewBox="0 0 50 50" fill="none" xmlns="http://www.w3.org/2000/svg">
<path fill-rule="evenodd" clip-rule="evenodd" d="M13.5948 10.3676C10.6962 11.9486 9.375 13.876 9.375 15.625C9.375 17.374 10.6962 19.3014 13.5948 20.8824C16.4343 22.4312 20.4637 23.4375 25 23.4375C29.5363 23.4375 33.5657 22.4312 36.4052 20.8824C39.3038 19.3014 40.625 17.374 40.625 15.625C40.625 13.876 39.3038 11.9486 36.4052 10.3676C33.5657 8.81878 29.5363 7.8125 25 7.8125C20.4637 7.8125 16.4343 8.81878 13.5948 10.3676ZM12.0984 7.62416C15.4796 5.77989 20.0439 4.6875 25 4.6875C29.9561 4.6875 34.5204 5.77989 37.9016 7.62416C41.2237 9.43621 43.75 12.1963 43.75 15.625C43.75 19.0537 41.2237 21.8138 37.9016 23.6258C34.5204 25.4701 29.9561 26.5625 25 26.5625C20.0439 26.5625 15.4796 25.4701 12.0984 23.6258C8.77631 21.8138 6.25 19.0537 6.25 15.625C6.25 12.1963 8.77631 9.43621 12.0984 7.62416Z" fill="white"/>
<path fill-rule="evenodd" clip-rule="evenodd" d="M7.8125 14.0625C8.67544 14.0625 9.375 14.7621 9.375 15.625V25C9.375 26.748 10.6961 28.6754 13.595 30.2567C16.4345 31.8058 20.464 32.8125 25 32.8125C29.536 32.8125 33.5655 31.8058 36.405 30.2567C39.3039 28.6754 40.625 26.748 40.625 25V15.625C40.625 14.7621 41.3246 14.0625 42.1875 14.0625C43.0504 14.0625 43.75 14.7621 43.75 15.625V25C43.75 28.4278 41.2235 31.1879 37.9016 33.0001C34.5205 34.8446 29.9561 35.9375 25 35.9375C20.0439 35.9375 15.4795 34.8446 12.0984 33.0001C8.77651 31.1879 6.25 28.4278 6.25 25V15.625C6.25 14.7621 6.94956 14.0625 7.8125 14.0625Z" fill="white"/>
<path fill-rule="evenodd" clip-rule="evenodd" d="M7.8125 23.4375C8.67544 23.4375 9.375 24.1371 9.375 25V34.375C9.375 36.123 10.6961 38.0504 13.595 39.6317C16.4345 41.1808 20.464 42.1875 25 42.1875C29.536 42.1875 33.5655 41.1808 36.405 39.6317C39.3039 38.0504 40.625 36.123 40.625 34.375V25C40.625 24.1371 41.3246 23.4375 42.1875 23.4375C43.0504 23.4375 43.75 24.1371 43.75 25V34.375C43.75 37.8028 41.2235 40.5629 37.9016 42.3751C34.5205 44.2196 29.9561 45.3125 25 45.3125C20.0439 45.3125 15.4795 44.2196 12.0984 42.3751C8.77651 40.5629 6.25 37.8028 6.25 34.375V25C6.25 24.1371 6.94956 23.4375 7.8125 23.4375Z" fill="white"/>
</svg>
