<svg width="50" height="50" viewBox="0 0 50 50" fill="none" xmlns="http://www.w3.org/2000/svg">
<path d="M10.7576 8.03589H7.39398V43.2727H40.3884C41.6274 43.2727 42.6309 42.2692 42.6309 41.0303V39.909H10.7576V8.03589Z" fill="white"/>
<path d="M4.03032 14.7632H0.666687V50H33.6611C34.9001 50 35.9036 48.9965 35.9036 47.7575V46.6363H4.03032V14.7632Z" fill="white"/>
<path d="M14.1212 0.666748V36.5454H47.7576C48.9965 36.5454 50 35.5419 50 34.303V0.666748H14.1212ZM38.2385 19.475L32.3801 25.3333L26.5218 19.475C25.8659 18.8191 25.8659 17.754 26.5218 17.0953L32.3801 11.2369L38.2385 17.0953C38.8944 17.7512 38.8944 18.8163 38.2385 19.475Z" fill="white"/>
</svg>
