<svg width="174" height="57" viewBox="0 0 174 57" fill="none" xmlns="http://www.w3.org/2000/svg">
<path d="M3.79034 0C1.69307 0 0 1.69307 0 3.79034V57H47.1619C48.7558 57 50.2887 56.367 51.4174 55.2383L55.2383 51.4175C56.367 50.2887 57 48.7558 57 47.1619V0H3.79034ZM37.217 7.32901L18.6771 25.8689C18.2196 26.3265 17.5942 26.5858 16.9459 26.5858C16.0003 26.5858 15.1309 26.0367 14.7267 25.1825L7.54255 9.99826C6.95531 8.75515 7.86286 7.32901 9.23562 7.32901H37.217ZM7.32901 49.671V31.6345C7.32901 30.6735 8.1069 29.8956 9.06784 29.8956H27.1044L7.32901 49.671ZM28.5991 26.5858H22.6276L40.5955 8.61788C41.4192 7.79422 42.5403 7.32901 43.7071 7.32901H49.6786L31.7107 25.2969C30.8871 26.1206 29.766 26.5858 28.5991 26.5858Z" fill="#00F58C"/>
<path d="M98 42.6537V13H102.058V40.8855H117.937L117.849 13.03L122 13V42.6537C122 43.951 120.964 45 119.683 45H100.321C99.04 45 98.0042 43.951 98.0042 42.6537H98Z" fill="white"/>
<path d="M154 42.6537V13H157.974V40.8855H174V45H156.268C155.014 45 154 43.951 154 42.6537Z" fill="white"/>
<path d="M73 45H77.101V31.1022H92.5565V26.9877H77.101V17.1145H92.3045C92.7573 17.1145 93.1674 16.8534 93.3639 16.4466L95 13H75.3452C74.0509 13 73 14.049 73 15.3463V45Z" fill="white"/>
<path d="M127 15.3463C127 14.049 128.047 13 129.341 13H149L147.368 16.4466C147.176 16.8576 146.761 17.1145 146.308 17.1145H131.102V26.9877H146.56V31.1022H131.102V40.8855H149V45H129.341C128.047 45 127 43.951 127 42.6537V15.3463Z" fill="white"/>
</svg>
