<svg width="54" height="50" viewBox="0 0 54 50" fill="none" xmlns="http://www.w3.org/2000/svg">
<g clip-path="url(#clip0_47_3644)">
<path d="M28.8718 6.1859V0H24.9776V6.1859L8.13782 15.5032L24.3814 24.4872C25.9615 25.3622 27.8942 25.3622 29.4744 24.4872L45.7179 15.5032L28.8782 6.1859H28.8718Z" fill="white"/>
<path d="M6.14744 37.3878L0 40.7885L1.91026 44.1282L8.13461 40.6859L24.9744 50.0032V32.2019C24.9744 30.3558 23.9615 28.6539 22.3269 27.75L6.14744 18.7981V37.3878Z" fill="white"/>
<path d="M53.8461 40.7885L47.6987 37.3878V18.7981L31.5192 27.75C29.8846 28.6539 28.8718 30.3558 28.8718 32.2019V50.0032L45.7115 40.6859L51.9359 44.1282L53.8461 40.7885Z" fill="white"/>
</g>
<defs>
<clipPath id="clip0_47_3644">
<rect width="53.8461" height="50" fill="white"/>
</clipPath>
</defs>
</svg>
