<svg width="50" height="50" viewBox="0 0 50 50" fill="none" xmlns="http://www.w3.org/2000/svg">
<path d="M2.97619 0C1.33333 0 0 1.33333 0 2.97619V50H38.0952L50 38.0952V0H2.97619ZM23.8095 4.7619C25.119 4.7619 26.1786 5.82143 26.1786 7.13095C26.1786 8.44048 25.119 9.5 23.8095 9.5C22.5 9.5 21.4405 8.44048 21.4405 7.13095C21.4405 5.82143 22.5 4.7619 23.8095 4.7619ZM16.0774 4.7619C17.3869 4.7619 18.4464 5.82143 18.4464 7.13095C18.4464 8.44048 17.3869 9.5 16.0774 9.5C14.7679 9.5 13.7083 8.44048 13.7083 7.13095C13.7083 5.82143 14.7679 4.7619 16.0774 4.7619ZM8.34524 4.7619C9.65476 4.7619 10.7143 5.82143 10.7143 7.13095C10.7143 8.44048 9.65476 9.5 8.34524 9.5C7.03571 9.5 5.97619 8.44048 5.97619 7.13095C5.97619 5.82143 7.03571 4.7619 8.34524 4.7619ZM18.2768 34.247L8.40476 44.119L5.88095 41.5952L15.3333 32.1429L5.88095 22.6905L8.40476 20.1667L18.2768 30.0387C19.4405 31.2024 19.4405 33.0863 18.2768 34.247ZM35.7143 44.119H20.2381V40.5476H35.7143V44.119Z" fill="white"/>
</svg>
