<svg width="50" height="50" viewBox="0 0 50 50" fill="none" xmlns="http://www.w3.org/2000/svg">
<path fill-rule="evenodd" clip-rule="evenodd" d="M10.9375 10.9375C10.5231 10.9375 10.1257 11.1021 9.83265 11.3951C9.53962 11.6882 9.375 12.0856 9.375 12.5C9.375 12.9144 9.53962 13.3118 9.83265 13.6049C10.1257 13.8979 10.5231 14.0625 10.9375 14.0625H42.1875C43.0163 14.0625 43.8112 14.3917 44.3972 14.9778C44.9833 15.5638 45.3125 16.3587 45.3125 17.1875V39.0625C45.3125 39.8913 44.9833 40.6862 44.3972 41.2722C43.8112 41.8583 43.0163 42.1875 42.1875 42.1875H10.9375C9.6943 42.1875 8.50201 41.6936 7.62294 40.8146C6.74386 39.9355 6.25 38.7432 6.25 37.5V12.5C6.25 11.2568 6.74386 10.0645 7.62294 9.18544C8.50201 8.30636 9.6943 7.8125 10.9375 7.8125H37.5C38.3629 7.8125 39.0625 8.51206 39.0625 9.375C39.0625 10.2379 38.3629 10.9375 37.5 10.9375H10.9375ZM9.375 16.9194V37.5C9.375 37.9144 9.53962 38.3118 9.83265 38.6049C10.1257 38.8979 10.5231 39.0625 10.9375 39.0625H42.1875V17.1875H10.9375C10.4001 17.1875 9.87219 17.0952 9.375 16.9194Z" fill="white"/>
<path d="M35.1562 30.4688C36.4507 30.4688 37.5 29.4194 37.5 28.125C37.5 26.8306 36.4507 25.7812 35.1562 25.7812C33.8618 25.7812 32.8125 26.8306 32.8125 28.125C32.8125 29.4194 33.8618 30.4688 35.1562 30.4688Z" fill="white"/>
</svg>
